<svg xmlns="http://www.w3.org/2000/svg" viewBox="0 0 1597.95 898.15"><defs><style>.cls-1{opacity:0.03;}.cls-10,.cls-11,.cls-13,.cls-2,.cls-3,.cls-4,.cls-5,.cls-6,.cls-8,.cls-9{fill:none;}.cls-13,.cls-3{stroke:#d2dcdf;stroke-miterlimit:4;}.cls-3{stroke-width:60.03px;}.cls-10,.cls-11,.cls-4,.cls-5,.cls-6,.cls-8,.cls-9{stroke:#fff;}.cls-10,.cls-11,.cls-4{stroke-linecap:round;}.cls-4{stroke-miterlimit:10;stroke-width:3px;}.cls-5{stroke-miterlimit:10;stroke-width:1.52px;}.cls-6{stroke-miterlimit:10;stroke-width:2px;}.cls-7{fill:#fff;}.cls-10,.cls-11,.cls-8,.cls-9{stroke-miterlimit:10;}.cls-8{stroke-width:2.24px;}.cls-9{stroke-width:1.5px;stroke-dasharray:7.7;}.cls-10{stroke-width:2px;}.cls-11{stroke-width:3px;}.cls-12{opacity:0.05;}.cls-13{stroke-width:30.01px;}.cls-14{opacity:0.11;}.cls-15{fill:#e7ebee;}.cls-16{fill:#111214;opacity:0.12;isolation:isolate;}</style></defs><title>Recurso 16</title><g id="Capa_2" data-name="Capa 2"><g id="Capa_1-2" data-name="Capa 1"><g id="Elipse_107" data-name="Elipse 107" class="cls-1"><circle class="cls-2" cx="346.21" cy="546.57" r="346.15"/><circle class="cls-3" cx="346.21" cy="546.57" r="316.13"/></g><circle id="Elipse_122" data-name="Elipse 122" class="cls-4" cx="330.17" cy="624.02" r="272.58"/><line id="Línea_159" data-name="Línea 159" class="cls-5" x1="578.2" y1="582.75" x2="889.32" y2="862.88"/><line id="Línea_158" data-name="Línea 158" class="cls-5" x1="611.32" y1="571.36" x2="922.44" y2="851.5"/><line id="Línea_157" data-name="Línea 157" class="cls-5" x1="648.16" y1="563.33" x2="959.28" y2="843.47"/><rect id="Rectángulo_645" data-name="Rectángulo 645" class="cls-6" x="210.6" y="257.97" width="39.88" height="39.88"/><rect id="Rectángulo_646" data-name="Rectángulo 646" class="cls-7" x="402.16" y="818.23" width="14.94" height="14.94"/><path id="Trazado_3285" data-name="Trazado 3285" class="cls-8" d="M514,60.45a38.54,38.54,0,1,1-54.51,0h0A38.56,38.56,0,0,1,514,60.45Z"/><g id="Grupo_1308" data-name="Grupo 1308"><circle id="Elipse_124" data-name="Elipse 124" class="cls-7" cx="392.56" cy="234.95" r="25.8"/><path id="Trazado_3286" data-name="Trazado 3286" class="cls-9" d="M468.15,159.34a106.9,106.9,0,1,1-151.19,0A106.9,106.9,0,0,1,468.15,159.34Z"/></g><g id="Grupo_1309" data-name="Grupo 1309"><path id="Trazado_3287" data-name="Trazado 3287" class="cls-10" d="M1418.19,566.07c0-18.28,17.56-18.28,17.55-36.57s-17.55-18.29-17.55-36.58,17.56-18.28,17.55-36.57-17.55-18.29-17.55-36.57,17.55-18.29,17.55-36.58-17.55-18.29-17.55-36.58,17.56-18.28,17.55-36.57-17.55-18.29-17.55-36.58,17.55-18.29,17.55-36.57-17.55-18.3-17.55-36.59,17.55-18.3,17.55-36.6"/></g><g id="Grupo_1311" data-name="Grupo 1311"><line id="Línea_39" data-name="Línea 39" class="cls-11" x1="167.46" y1="161.29" x2="187.56" y2="161.29"/><line id="Línea_40" data-name="Línea 40" class="cls-11" x1="177.5" y1="171.35" x2="177.5" y2="151.25"/></g><g id="Elipse_108" data-name="Elipse 108" class="cls-12"><circle class="cls-2" cx="1427.38" cy="390.44" r="148.06"/><circle class="cls-13" cx="1427.38" cy="390.44" r="133.06"/></g><g id="Grupo_1270" data-name="Grupo 1270" class="cls-14"><circle id="Elipse_105" data-name="Elipse 105" class="cls-15" cx="688.95" cy="665" r="3"/><circle id="Elipse_105-2" data-name="Elipse 105-2" class="cls-15" cx="688.95" cy="694" r="3"/><circle id="Elipse_105-3" data-name="Elipse 105-3" class="cls-15" cx="688.95" cy="723" r="3"/><circle id="Elipse_105-4" data-name="Elipse 105-4" class="cls-15" cx="688.95" cy="751" r="3"/><circle id="Elipse_105-5" data-name="Elipse 105-5" class="cls-15" cx="688.95" cy="780" r="3"/><ellipse id="Elipse_105-6" data-name="Elipse 105-6" class="cls-15" cx="688.95" cy="808.5" rx="3" ry="2.5"/><circle id="Elipse_105-7" data-name="Elipse 105-7" class="cls-15" cx="660.95" cy="665" r="3"/><circle id="Elipse_105-8" data-name="Elipse 105-8" class="cls-15" cx="660.95" cy="694" r="3"/><circle id="Elipse_105-9" data-name="Elipse 105-9" class="cls-15" cx="660.95" cy="723" r="3"/><circle id="Elipse_105-10" data-name="Elipse 105-10" class="cls-15" cx="660.95" cy="751" r="3"/><circle id="Elipse_105-11" data-name="Elipse 105-11" class="cls-15" cx="660.95" cy="780" r="3"/><ellipse id="Elipse_105-12" data-name="Elipse 105-12" class="cls-15" cx="660.95" cy="808.5" rx="3" ry="2.5"/><circle id="Elipse_105-13" data-name="Elipse 105-13" class="cls-15" cx="633.95" cy="665" r="3"/><circle id="Elipse_105-14" data-name="Elipse 105-14" class="cls-15" cx="633.95" cy="694" r="3"/><circle id="Elipse_105-15" data-name="Elipse 105-15" class="cls-15" cx="633.95" cy="723" r="3"/><circle id="Elipse_105-16" data-name="Elipse 105-16" class="cls-15" cx="633.95" cy="751" r="3"/><circle id="Elipse_105-17" data-name="Elipse 105-17" class="cls-15" cx="633.95" cy="780" r="3"/><ellipse id="Elipse_105-18" data-name="Elipse 105-18" class="cls-15" cx="633.95" cy="808.5" rx="3" ry="2.5"/><circle id="Elipse_105-19" data-name="Elipse 105-19" class="cls-15" cx="605.95" cy="665" r="3"/><circle id="Elipse_105-20" data-name="Elipse 105-20" class="cls-15" cx="605.95" cy="694" r="3"/><circle id="Elipse_105-21" data-name="Elipse 105-21" class="cls-15" cx="605.95" cy="723" r="3"/><circle id="Elipse_105-22" data-name="Elipse 105-22" class="cls-15" cx="605.95" cy="751" r="3"/><circle id="Elipse_105-23" data-name="Elipse 105-23" class="cls-15" cx="605.95" cy="780" r="3"/><ellipse id="Elipse_105-24" data-name="Elipse 105-24" class="cls-15" cx="605.95" cy="808.5" rx="3" ry="2.5"/><circle id="Elipse_105-25" data-name="Elipse 105-25" class="cls-15" cx="688.95" cy="637" r="3"/><circle id="Elipse_105-26" data-name="Elipse 105-26" class="cls-15" cx="660.95" cy="637" r="3"/><circle id="Elipse_105-27" data-name="Elipse 105-27" class="cls-15" cx="633.95" cy="637" r="3"/><circle id="Elipse_105-28" data-name="Elipse 105-28" class="cls-15" cx="605.95" cy="637" r="3"/></g><g id="Grupo_1390" data-name="Grupo 1390" class="cls-14"><circle id="Elipse_105-29" data-name="Elipse 105-29" class="cls-7" cx="1350.95" cy="31" r="3"/><circle id="Elipse_105-30" data-name="Elipse 105-30" class="cls-7" cx="1350.95" cy="60" r="3"/><circle id="Elipse_105-31" data-name="Elipse 105-31" class="cls-7" cx="1350.95" cy="89" r="3"/><circle id="Elipse_105-32" data-name="Elipse 105-32" class="cls-7" cx="1350.95" cy="117" r="3"/><circle id="Elipse_105-33" data-name="Elipse 105-33" class="cls-7" cx="1350.95" cy="146" r="3"/><ellipse id="Elipse_105-34" data-name="Elipse 105-34" class="cls-7" cx="1350.95" cy="174.5" rx="3" ry="2.5"/><circle id="Elipse_105-35" data-name="Elipse 105-35" class="cls-7" cx="1322.95" cy="31" r="3"/><circle id="Elipse_105-36" data-name="Elipse 105-36" class="cls-7" cx="1322.95" cy="60" r="3"/><circle id="Elipse_105-37" data-name="Elipse 105-37" class="cls-7" cx="1322.95" cy="89" r="3"/><circle id="Elipse_105-38" data-name="Elipse 105-38" class="cls-7" cx="1322.95" cy="117" r="3"/><circle id="Elipse_105-39" data-name="Elipse 105-39" class="cls-7" cx="1322.95" cy="146" r="3"/><ellipse id="Elipse_105-40" data-name="Elipse 105-40" class="cls-7" cx="1322.95" cy="174.5" rx="3" ry="2.5"/><circle id="Elipse_105-41" data-name="Elipse 105-41" class="cls-7" cx="1295.95" cy="31" r="3"/><circle id="Elipse_105-42" data-name="Elipse 105-42" class="cls-7" cx="1295.95" cy="60" r="3"/><circle id="Elipse_105-43" data-name="Elipse 105-43" class="cls-7" cx="1295.95" cy="89" r="3"/><circle id="Elipse_105-44" data-name="Elipse 105-44" class="cls-7" cx="1295.95" cy="117" r="3"/><circle id="Elipse_105-45" data-name="Elipse 105-45" class="cls-7" cx="1295.95" cy="146" r="3"/><ellipse id="Elipse_105-46" data-name="Elipse 105-46" class="cls-7" cx="1295.95" cy="174.5" rx="3" ry="2.5"/><circle id="Elipse_105-47" data-name="Elipse 105-47" class="cls-7" cx="1267.95" cy="31" r="3"/><circle id="Elipse_105-48" data-name="Elipse 105-48" class="cls-7" cx="1267.95" cy="60" r="3"/><circle id="Elipse_105-49" data-name="Elipse 105-49" class="cls-7" cx="1267.95" cy="89" r="3"/><circle id="Elipse_105-50" data-name="Elipse 105-50" class="cls-7" cx="1267.95" cy="117" r="3"/><circle id="Elipse_105-51" data-name="Elipse 105-51" class="cls-7" cx="1267.95" cy="146" r="3"/><ellipse id="Elipse_105-52" data-name="Elipse 105-52" class="cls-7" cx="1267.95" cy="174.5" rx="3" ry="2.5"/><circle id="Elipse_105-53" data-name="Elipse 105-53" class="cls-7" cx="1350.95" cy="3" r="3"/><circle id="Elipse_105-54" data-name="Elipse 105-54" class="cls-7" cx="1322.95" cy="3" r="3"/><circle id="Elipse_105-55" data-name="Elipse 105-55" class="cls-7" cx="1295.95" cy="3" r="3"/><circle id="Elipse_105-56" data-name="Elipse 105-56" class="cls-7" cx="1267.95" cy="3" r="3"/></g><g id="Grupo_1397" data-name="Grupo 1397" class="cls-14"><circle id="Elipse_105-57" data-name="Elipse 105-57" class="cls-7" cx="1566.95" cy="501" r="3"/><circle id="Elipse_105-58" data-name="Elipse 105-58" class="cls-7" cx="1537.95" cy="501" r="3"/><circle id="Elipse_105-59" data-name="Elipse 105-59" class="cls-7" cx="1508.95" cy="501" r="3"/><circle id="Elipse_105-60" data-name="Elipse 105-60" class="cls-7" cx="1480.95" cy="501" r="3"/><circle id="Elipse_105-61" data-name="Elipse 105-61" class="cls-7" cx="1451.95" cy="501" r="3"/><ellipse id="Elipse_105-62" data-name="Elipse 105-62" class="cls-7" cx="1423.45" cy="501" rx="2.5" ry="3"/><circle id="Elipse_105-63" data-name="Elipse 105-63" class="cls-7" cx="1566.95" cy="473" r="3"/><circle id="Elipse_105-64" data-name="Elipse 105-64" class="cls-7" cx="1537.95" cy="473" r="3"/><circle id="Elipse_105-65" data-name="Elipse 105-65" class="cls-7" cx="1508.95" cy="473" r="3"/><circle id="Elipse_105-66" data-name="Elipse 105-66" class="cls-7" cx="1480.95" cy="473" r="3"/><circle id="Elipse_105-67" data-name="Elipse 105-67" class="cls-7" cx="1451.95" cy="473" r="3"/><ellipse id="Elipse_105-68" data-name="Elipse 105-68" class="cls-7" cx="1423.45" cy="473" rx="2.5" ry="3"/><circle id="Elipse_105-69" data-name="Elipse 105-69" class="cls-7" cx="1566.95" cy="446" r="3"/><circle id="Elipse_105-70" data-name="Elipse 105-70" class="cls-7" cx="1537.95" cy="446" r="3"/><circle id="Elipse_105-71" data-name="Elipse 105-71" class="cls-7" cx="1508.95" cy="446" r="3"/><circle id="Elipse_105-72" data-name="Elipse 105-72" class="cls-7" cx="1480.95" cy="446" r="3"/><circle id="Elipse_105-73" data-name="Elipse 105-73" class="cls-7" cx="1451.95" cy="446" r="3"/><ellipse id="Elipse_105-74" data-name="Elipse 105-74" class="cls-7" cx="1423.45" cy="446" rx="2.5" ry="3"/><circle id="Elipse_105-75" data-name="Elipse 105-75" class="cls-7" cx="1566.95" cy="418" r="3"/><circle id="Elipse_105-76" data-name="Elipse 105-76" class="cls-7" cx="1537.95" cy="418" r="3"/><circle id="Elipse_105-77" data-name="Elipse 105-77" class="cls-7" cx="1508.95" cy="418" r="3"/><circle id="Elipse_105-78" data-name="Elipse 105-78" class="cls-7" cx="1480.95" cy="418" r="3"/><circle id="Elipse_105-79" data-name="Elipse 105-79" class="cls-7" cx="1451.95" cy="418" r="3"/><ellipse id="Elipse_105-80" data-name="Elipse 105-80" class="cls-7" cx="1423.45" cy="418" rx="2.5" ry="3"/><circle id="Elipse_105-81" data-name="Elipse 105-81" class="cls-7" cx="1594.95" cy="501" r="3"/><circle id="Elipse_105-82" data-name="Elipse 105-82" class="cls-7" cx="1594.95" cy="473" r="3"/><circle id="Elipse_105-83" data-name="Elipse 105-83" class="cls-7" cx="1594.95" cy="446" r="3"/><circle id="Elipse_105-84" data-name="Elipse 105-84" class="cls-7" cx="1594.95" cy="418" r="3"/></g><rect id="Rectángulo_100" data-name="Rectángulo 100" class="cls-16" x="1204.95" y="328" width="298" height="467"/></g></g></svg>