<svg xmlns="http://www.w3.org/2000/svg" viewBox="0 0 674.09 659.35"><defs><style>.cls-1,.cls-3,.cls-4,.cls-5,.cls-6,.cls-7,.cls-8,.cls-9{fill:none;stroke:#fff;}.cls-1,.cls-5,.cls-6,.cls-7,.cls-9{stroke-linecap:round;}.cls-1{stroke-miterlimit:10;stroke-width:2px;}.cls-2{fill:#fff;}.cls-3{stroke-miterlimit:10;stroke-width:2px;}.cls-4,.cls-5,.cls-8,.cls-9{stroke-miterlimit:10;}.cls-4,.cls-5,.cls-8{stroke-width:2px;}.cls-4{stroke-dasharray:7.7;}.cls-6{stroke-miterlimit:10;stroke-width:3px;}.cls-7{stroke-miterlimit:10;stroke-width:3.3px;}.cls-9{stroke-width:3.3px;}</style></defs><title>Recurso 6</title><g id="Capa_2" data-name="Capa 2"><g id="Capa_2-2" data-name="Capa 2"><circle id="Elipse_122" data-name="Elipse 122" class="cls-1" cx="348.8" cy="398.72" r="259.58"/><path id="Trazado_3283" data-name="Trazado 3283" class="cls-2" d="M538.2,296.84a9.71,9.71,0,1,1,0-13.73A9.71,9.71,0,0,1,538.2,296.84Z"/><rect id="Rectángulo_645" data-name="Rectángulo 645" class="cls-3" x="99.22" y="60.35" width="36.88" height="36.88"/><rect id="Rectángulo_646" data-name="Rectángulo 646" class="cls-2" x="130.91" y="231.91" width="21.94" height="21.94" transform="translate(-16.65 10.53) rotate(-4.01)"/><circle id="Elipse_124" data-name="Elipse 124" class="cls-2" cx="517.11" cy="190.32" r="37.64"/><path id="Trazado_3286" data-name="Trazado 3286" class="cls-4" d="M627.41,300.59a156,156,0,1,1,0-220.56A155.95,155.95,0,0,1,627.41,300.59Z"/><g id="Grupo_1309" data-name="Grupo 1309"><path id="Trazado_3287" data-name="Trazado 3287" class="cls-5" d="M217,115c18.28,0,18.28,17.55,36.57,17.55S271.86,115,290.15,115s18.28,17.55,36.57,17.55S345,115,363.29,115s18.29,17.55,36.58,17.55S418.16,115,436.45,115,454.74,132.5,473,132.5,491.31,115,509.6,115s18.29,17.55,36.57,17.55S564.47,115,582.77,115s18.29,17.55,36.59,17.55"/></g><g id="Grupo_1311" data-name="Grupo 1311"><line id="Línea_39" data-name="Línea 39" class="cls-6" x1="306.26" y1="50.98" x2="309.3" y2="64.14"/><line id="Línea_40" data-name="Línea 40" class="cls-6" x1="301.19" y1="59.07" x2="314.36" y2="56.04"/></g><g id="Grupo_1395" data-name="Grupo 1395"><line id="Línea_39-2" data-name="Línea 39-2" class="cls-7" x1="614.95" y1="1.65" x2="604.6" y2="18.88"/><line id="Línea_40-2" data-name="Línea 40-2" class="cls-7" x1="601.16" y1="5.08" x2="618.39" y2="15.43"/></g><rect id="Rectángulo_645-2" data-name="Rectángulo 645-2" class="cls-2" x="429.22" y="159.35" width="39.88" height="39.88"/><path id="Trazado_3285" data-name="Trazado 3285" class="cls-8" d="M144.62,543.8a38.54,38.54,0,1,1,0-54.51h0A38.55,38.55,0,0,1,144.62,543.8Z"/><g id="Grupo_1309-2" data-name="Grupo 1309-2"><path id="Trazado_3287-2" data-name="Trazado 3287-2" class="cls-5" d="M1,342c18.29,0,18.29,17.55,36.57,17.55S55.86,342,74.15,342s18.28,17.55,36.57,17.55S129,342,147.29,342s18.29,17.55,36.58,17.55S202.16,342,220.45,342,238.74,359.5,257,359.5,275.31,342,293.6,342s18.29,17.55,36.57,17.55S348.47,342,366.77,342s18.29,17.55,36.59,17.55"/></g><g id="Grupo_1311-2" data-name="Grupo 1311-2"><line id="Línea_39-3" data-name="Línea 39-3" class="cls-9" x1="48.78" y1="269.21" x2="48.78" y2="289.31"/><line id="Línea_40-3" data-name="Línea 40-3" class="cls-9" x1="38.73" y1="279.26" x2="58.82" y2="279.26"/></g></g></g></svg>