<svg xmlns="http://www.w3.org/2000/svg" viewBox="0 0 1597.95 922.89"><defs><style>.cls-1{opacity:0.15;}.cls-10,.cls-12,.cls-13,.cls-14,.cls-15,.cls-2,.cls-3,.cls-4,.cls-5,.cls-6,.cls-8,.cls-9{fill:none;}.cls-15,.cls-3{stroke:#d2dcdf;stroke-miterlimit:4;}.cls-3{stroke-width:60.03px;}.cls-10,.cls-4{stroke:#1749ff;}.cls-13,.cls-14,.cls-4{stroke-linecap:round;}.cls-4{stroke-miterlimit:10;stroke-width:5px;opacity:0.1;isolation:isolate;}.cls-12,.cls-13,.cls-14,.cls-5,.cls-6,.cls-8{stroke:#ffd400;}.cls-10,.cls-12,.cls-13,.cls-14,.cls-5{stroke-miterlimit:10;}.cls-5{stroke-width:1.52px;}.cls-6{stroke-miterlimit:10;stroke-width:1.52px;}.cls-7{fill:#1b89fb;}.cls-8{stroke-miterlimit:10;stroke-width:2px;}.cls-9{stroke:#ff374c;}.cls-10{stroke-width:2.24px;}.cls-11{fill:#ffd400;}.cls-12{stroke-width:1.5px;stroke-dasharray:7.7;}.cls-13{stroke-width:2px;}.cls-14{stroke-width:1.37px;}.cls-15{stroke-width:30.01px;}.cls-16{fill:#e7ebee;}</style></defs><title>Recurso 14</title><g id="Capa_2" data-name="Capa 2"><g id="Capa_2-2" data-name="Capa 2"><g id="Grupo_1404" data-name="Grupo 1404"><g id="Elipse_107" data-name="Elipse 107" class="cls-1"><circle class="cls-2" cx="346.21" cy="576.68" r="346.15"/><circle class="cls-3" cx="346.21" cy="576.68" r="316.13"/></g><circle id="Elipse_122" data-name="Elipse 122" class="cls-4" cx="405.17" cy="275.13" r="272.58"/><g id="Grupo_1305" data-name="Grupo 1305"><line id="Línea_24" data-name="Línea 24" class="cls-5" x1="1021.56" y1="449.27" x2="602.91" y2="449.27"/><line id="Línea_25" data-name="Línea 25" class="cls-5" x1="602.91" y1="418.65" x2="1021.56" y2="418.65"/><line id="Línea_26" data-name="Línea 26" class="cls-5" x1="602.91" y1="388.03" x2="1021.56" y2="388.03"/><line id="Línea_27" data-name="Línea 27" class="cls-5" x1="602.91" y1="357.41" x2="1021.57" y2="357.41"/><line id="Línea_28" data-name="Línea 28" class="cls-5" x1="602.91" y1="326.79" x2="1021.56" y2="326.79"/><line id="Línea_29" data-name="Línea 29" class="cls-5" x1="602.91" y1="296.17" x2="1021.56" y2="296.18"/><line id="Línea_30" data-name="Línea 30" class="cls-5" x1="602.91" y1="265.55" x2="1021.57" y2="265.56"/><line id="Línea_31" data-name="Línea 31" class="cls-5" x1="602.91" y1="234.93" x2="1021.57" y2="234.94"/><line id="Línea_32" data-name="Línea 32" class="cls-5" x1="602.91" y1="204.32" x2="1021.57" y2="204.31"/><line id="Línea_33" data-name="Línea 33" class="cls-5" x1="602.91" y1="173.69" x2="1021.57" y2="173.7"/><line id="Línea_34" data-name="Línea 34" class="cls-5" x1="602.91" y1="143.08" x2="1021.56" y2="143.08"/><line id="Línea_35" data-name="Línea 35" class="cls-5" x1="547.91" y1="112.46" x2="966.56" y2="112.46"/><line id="Línea_159" data-name="Línea 159" class="cls-6" x1="483.2" y1="561.86" x2="794.32" y2="841.99"/><line id="Línea_158" data-name="Línea 158" class="cls-6" x1="516.32" y1="550.48" x2="827.44" y2="830.61"/><line id="Línea_157" data-name="Línea 157" class="cls-6" x1="553.16" y1="542.44" x2="864.28" y2="822.58"/></g><path id="Trazado_3283" data-name="Trazado 3283" class="cls-7" d="M480.08,388a9.71,9.71,0,1,1-13.73,0A9.71,9.71,0,0,1,480.08,388Z"/><rect id="Rectángulo_645" data-name="Rectángulo 645" class="cls-8" x="163.6" y="508.08" width="39.88" height="39.88"/><rect id="Rectángulo_646" data-name="Rectángulo 646" class="cls-9" x="306.16" y="63.34" width="14.94" height="14.94"/><path id="Trazado_3285" data-name="Trazado 3285" class="cls-10" d="M514,90.57a38.54,38.54,0,1,1-54.51,0h0A38.55,38.55,0,0,1,514,90.57Z"/><g id="Grupo_1308" data-name="Grupo 1308"><circle id="Elipse_124" data-name="Elipse 124" class="cls-11" cx="392.56" cy="265.06" r="25.8"/><path id="Trazado_3286" data-name="Trazado 3286" class="cls-12" d="M468.15,189.46a106.9,106.9,0,1,1-151.19,0A106.88,106.88,0,0,1,468.15,189.46Z"/></g><g id="Grupo_1309" data-name="Grupo 1309"><path id="Trazado_3287" data-name="Trazado 3287" class="cls-13" d="M1418.19,596.18c0-18.28,17.56-18.28,17.55-36.57s-17.55-18.29-17.55-36.58,17.56-18.28,17.55-36.57-17.55-18.28-17.55-36.57,17.55-18.29,17.55-36.58-17.55-18.29-17.55-36.58,17.56-18.28,17.55-36.57-17.55-18.29-17.55-36.58,17.55-18.29,17.55-36.57-17.55-18.3-17.55-36.59,17.55-18.3,17.55-36.6"/></g><g id="Grupo_1311" data-name="Grupo 1311"><line id="Línea_39" data-name="Línea 39" class="cls-14" x1="385.46" y1="80.4" x2="405.56" y2="80.4"/><line id="Línea_40" data-name="Línea 40" class="cls-14" x1="395.5" y1="90.46" x2="395.5" y2="70.36"/></g><g id="Elipse_108" data-name="Elipse 108" class="cls-1"><circle class="cls-2" cx="1427.38" cy="420.55" r="148.06"/><circle class="cls-15" cx="1427.38" cy="420.55" r="133.06"/></g><g id="Grupo_1270" data-name="Grupo 1270"><circle id="Elipse_105" data-name="Elipse 105" class="cls-16" cx="592.95" cy="695.11" r="3"/><circle id="Elipse_105-2" data-name="Elipse 105-2" class="cls-16" cx="592.95" cy="724.11" r="3"/><circle id="Elipse_105-3" data-name="Elipse 105-3" class="cls-16" cx="592.95" cy="753.11" r="3"/><circle id="Elipse_105-4" data-name="Elipse 105-4" class="cls-16" cx="592.95" cy="781.11" r="3"/><circle id="Elipse_105-5" data-name="Elipse 105-5" class="cls-16" cx="592.95" cy="810.11" r="3"/><ellipse id="Elipse_105-6" data-name="Elipse 105-6" class="cls-16" cx="592.95" cy="838.61" rx="3" ry="2.5"/><circle id="Elipse_105-7" data-name="Elipse 105-7" class="cls-16" cx="564.95" cy="695.11" r="3"/><circle id="Elipse_105-8" data-name="Elipse 105-8" class="cls-16" cx="564.95" cy="724.11" r="3"/><circle id="Elipse_105-9" data-name="Elipse 105-9" class="cls-16" cx="564.95" cy="753.11" r="3"/><circle id="Elipse_105-10" data-name="Elipse 105-10" class="cls-16" cx="564.95" cy="781.11" r="3"/><circle id="Elipse_105-11" data-name="Elipse 105-11" class="cls-16" cx="564.95" cy="810.11" r="3"/><ellipse id="Elipse_105-12" data-name="Elipse 105-12" class="cls-16" cx="564.95" cy="838.61" rx="3" ry="2.5"/><circle id="Elipse_105-13" data-name="Elipse 105-13" class="cls-16" cx="537.95" cy="695.11" r="3"/><circle id="Elipse_105-14" data-name="Elipse 105-14" class="cls-16" cx="537.95" cy="724.11" r="3"/><circle id="Elipse_105-15" data-name="Elipse 105-15" class="cls-16" cx="537.95" cy="753.11" r="3"/><circle id="Elipse_105-16" data-name="Elipse 105-16" class="cls-16" cx="537.95" cy="781.11" r="3"/><circle id="Elipse_105-17" data-name="Elipse 105-17" class="cls-16" cx="537.95" cy="810.11" r="3"/><ellipse id="Elipse_105-18" data-name="Elipse 105-18" class="cls-16" cx="537.95" cy="838.61" rx="3" ry="2.5"/><circle id="Elipse_105-19" data-name="Elipse 105-19" class="cls-16" cx="509.95" cy="695.11" r="3"/><circle id="Elipse_105-20" data-name="Elipse 105-20" class="cls-16" cx="509.95" cy="724.11" r="3"/><circle id="Elipse_105-21" data-name="Elipse 105-21" class="cls-16" cx="509.95" cy="753.11" r="3"/><circle id="Elipse_105-22" data-name="Elipse 105-22" class="cls-16" cx="509.95" cy="781.11" r="3"/><circle id="Elipse_105-23" data-name="Elipse 105-23" class="cls-16" cx="509.95" cy="810.11" r="3"/><ellipse id="Elipse_105-24" data-name="Elipse 105-24" class="cls-16" cx="509.95" cy="838.61" rx="3" ry="2.5"/><circle id="Elipse_105-25" data-name="Elipse 105-25" class="cls-16" cx="592.95" cy="667.11" r="3"/><circle id="Elipse_105-26" data-name="Elipse 105-26" class="cls-16" cx="564.95" cy="667.11" r="3"/><circle id="Elipse_105-27" data-name="Elipse 105-27" class="cls-16" cx="537.95" cy="667.11" r="3"/><circle id="Elipse_105-28" data-name="Elipse 105-28" class="cls-16" cx="509.95" cy="667.11" r="3"/></g><g id="Grupo_1390" data-name="Grupo 1390"><circle id="Elipse_105-29" data-name="Elipse 105-29" class="cls-16" cx="1350.95" cy="61.11" r="3"/><circle id="Elipse_105-30" data-name="Elipse 105-30" class="cls-16" cx="1350.95" cy="90.11" r="3"/><circle id="Elipse_105-31" data-name="Elipse 105-31" class="cls-16" cx="1350.95" cy="119.11" r="3"/><circle id="Elipse_105-32" data-name="Elipse 105-32" class="cls-16" cx="1350.95" cy="147.11" r="3"/><circle id="Elipse_105-33" data-name="Elipse 105-33" class="cls-16" cx="1350.95" cy="176.11" r="3"/><ellipse id="Elipse_105-34" data-name="Elipse 105-34" class="cls-16" cx="1350.95" cy="204.61" rx="3" ry="2.5"/><circle id="Elipse_105-35" data-name="Elipse 105-35" class="cls-16" cx="1322.95" cy="61.11" r="3"/><circle id="Elipse_105-36" data-name="Elipse 105-36" class="cls-16" cx="1322.95" cy="90.11" r="3"/><circle id="Elipse_105-37" data-name="Elipse 105-37" class="cls-16" cx="1322.95" cy="119.11" r="3"/><circle id="Elipse_105-38" data-name="Elipse 105-38" class="cls-16" cx="1322.95" cy="147.11" r="3"/><circle id="Elipse_105-39" data-name="Elipse 105-39" class="cls-16" cx="1322.95" cy="176.11" r="3"/><ellipse id="Elipse_105-40" data-name="Elipse 105-40" class="cls-16" cx="1322.95" cy="204.61" rx="3" ry="2.5"/><circle id="Elipse_105-41" data-name="Elipse 105-41" class="cls-16" cx="1295.95" cy="61.11" r="3"/><circle id="Elipse_105-42" data-name="Elipse 105-42" class="cls-16" cx="1295.95" cy="90.11" r="3"/><circle id="Elipse_105-43" data-name="Elipse 105-43" class="cls-16" cx="1295.95" cy="119.11" r="3"/><circle id="Elipse_105-44" data-name="Elipse 105-44" class="cls-16" cx="1295.95" cy="147.11" r="3"/><circle id="Elipse_105-45" data-name="Elipse 105-45" class="cls-16" cx="1295.95" cy="176.11" r="3"/><ellipse id="Elipse_105-46" data-name="Elipse 105-46" class="cls-16" cx="1295.95" cy="204.61" rx="3" ry="2.5"/><circle id="Elipse_105-47" data-name="Elipse 105-47" class="cls-16" cx="1267.95" cy="61.11" r="3"/><circle id="Elipse_105-48" data-name="Elipse 105-48" class="cls-16" cx="1267.95" cy="90.11" r="3"/><circle id="Elipse_105-49" data-name="Elipse 105-49" class="cls-16" cx="1267.95" cy="119.11" r="3"/><circle id="Elipse_105-50" data-name="Elipse 105-50" class="cls-16" cx="1267.95" cy="147.11" r="3"/><circle id="Elipse_105-51" data-name="Elipse 105-51" class="cls-16" cx="1267.95" cy="176.11" r="3"/><ellipse id="Elipse_105-52" data-name="Elipse 105-52" class="cls-16" cx="1267.95" cy="204.61" rx="3" ry="2.5"/><circle id="Elipse_105-53" data-name="Elipse 105-53" class="cls-16" cx="1350.95" cy="33.11" r="3"/><circle id="Elipse_105-54" data-name="Elipse 105-54" class="cls-16" cx="1322.95" cy="33.11" r="3"/><circle id="Elipse_105-55" data-name="Elipse 105-55" class="cls-16" cx="1295.95" cy="33.11" r="3"/><circle id="Elipse_105-56" data-name="Elipse 105-56" class="cls-16" cx="1267.95" cy="33.11" r="3"/></g><g id="Grupo_1397" data-name="Grupo 1397"><circle id="Elipse_105-57" data-name="Elipse 105-57" class="cls-16" cx="1566.95" cy="531.11" r="3"/><circle id="Elipse_105-58" data-name="Elipse 105-58" class="cls-16" cx="1537.95" cy="531.11" r="3"/><circle id="Elipse_105-59" data-name="Elipse 105-59" class="cls-16" cx="1508.95" cy="531.11" r="3"/><circle id="Elipse_105-60" data-name="Elipse 105-60" class="cls-16" cx="1480.95" cy="531.11" r="3"/><circle id="Elipse_105-61" data-name="Elipse 105-61" class="cls-16" cx="1451.95" cy="531.11" r="3"/><ellipse id="Elipse_105-62" data-name="Elipse 105-62" class="cls-16" cx="1423.45" cy="531.11" rx="2.5" ry="3"/><circle id="Elipse_105-63" data-name="Elipse 105-63" class="cls-16" cx="1566.95" cy="503.11" r="3"/><circle id="Elipse_105-64" data-name="Elipse 105-64" class="cls-16" cx="1537.95" cy="503.11" r="3"/><circle id="Elipse_105-65" data-name="Elipse 105-65" class="cls-16" cx="1508.95" cy="503.11" r="3"/><circle id="Elipse_105-66" data-name="Elipse 105-66" class="cls-16" cx="1480.95" cy="503.11" r="3"/><circle id="Elipse_105-67" data-name="Elipse 105-67" class="cls-16" cx="1451.95" cy="503.11" r="3"/><ellipse id="Elipse_105-68" data-name="Elipse 105-68" class="cls-16" cx="1423.45" cy="503.11" rx="2.5" ry="3"/><circle id="Elipse_105-69" data-name="Elipse 105-69" class="cls-16" cx="1566.95" cy="476.11" r="3"/><circle id="Elipse_105-70" data-name="Elipse 105-70" class="cls-16" cx="1537.95" cy="476.11" r="3"/><circle id="Elipse_105-71" data-name="Elipse 105-71" class="cls-16" cx="1508.95" cy="476.11" r="3"/><circle id="Elipse_105-72" data-name="Elipse 105-72" class="cls-16" cx="1480.95" cy="476.11" r="3"/><circle id="Elipse_105-73" data-name="Elipse 105-73" class="cls-16" cx="1451.95" cy="476.11" r="3"/><ellipse id="Elipse_105-74" data-name="Elipse 105-74" class="cls-16" cx="1423.45" cy="476.11" rx="2.5" ry="3"/><circle id="Elipse_105-75" data-name="Elipse 105-75" class="cls-16" cx="1566.95" cy="448.11" r="3"/><circle id="Elipse_105-76" data-name="Elipse 105-76" class="cls-16" cx="1537.95" cy="448.11" r="3"/><circle id="Elipse_105-77" data-name="Elipse 105-77" class="cls-16" cx="1508.95" cy="448.11" r="3"/><circle id="Elipse_105-78" data-name="Elipse 105-78" class="cls-16" cx="1480.95" cy="448.11" r="3"/><circle id="Elipse_105-79" data-name="Elipse 105-79" class="cls-16" cx="1451.95" cy="448.11" r="3"/><ellipse id="Elipse_105-80" data-name="Elipse 105-80" class="cls-16" cx="1423.45" cy="448.11" rx="2.5" ry="3"/><circle id="Elipse_105-81" data-name="Elipse 105-81" class="cls-16" cx="1594.95" cy="531.11" r="3"/><circle id="Elipse_105-82" data-name="Elipse 105-82" class="cls-16" cx="1594.95" cy="503.11" r="3"/><circle id="Elipse_105-83" data-name="Elipse 105-83" class="cls-16" cx="1594.95" cy="476.11" r="3"/><circle id="Elipse_105-84" data-name="Elipse 105-84" class="cls-16" cx="1594.95" cy="448.11" r="3"/></g></g></g></g></svg>