<svg xmlns="http://www.w3.org/2000/svg" viewBox="0 0 747.11 660.85"><defs><style>.cls-1{opacity:0.51;}.cls-10,.cls-11,.cls-12,.cls-13,.cls-2,.cls-4,.cls-7,.cls-8{fill:none;}.cls-10,.cls-12,.cls-2{stroke:#1749ff;}.cls-10,.cls-11,.cls-13,.cls-2,.cls-8{stroke-linecap:round;}.cls-2{stroke-miterlimit:10;stroke-width:5px;opacity:0.1;}.cls-12,.cls-2{isolation:isolate;}.cls-3{fill:#1b89fb;}.cls-11,.cls-13,.cls-4,.cls-7,.cls-8{stroke:#ffd400;}.cls-4{stroke-miterlimit:10;stroke-width:2px;}.cls-5{fill:#ff374c;}.cls-6{fill:#ffd400;}.cls-10,.cls-12,.cls-13,.cls-7,.cls-8{stroke-miterlimit:10;}.cls-7,.cls-8{stroke-width:2px;}.cls-7{stroke-dasharray:7.7;}.cls-9{opacity:0.5;}.cls-10{stroke-width:3px;}.cls-11{stroke-miterlimit:10;stroke-width:3.3px;}.cls-12{stroke-width:2.24px;opacity:0.38;}.cls-13{stroke-width:3.3px;}</style></defs><title>Recurso 15</title><g id="Capa_2" data-name="Capa 2"><g id="Capa_2-2" data-name="Capa 2"><g id="Grupo_1405" data-name="Grupo 1405"><g id="Grupo_1312" data-name="Grupo 1312" class="cls-1"><circle id="Elipse_122" data-name="Elipse 122" class="cls-2" cx="348.8" cy="398.72" r="259.58"/><path id="Trazado_3283" data-name="Trazado 3283" class="cls-3" d="M538.2,296.84a9.71,9.71,0,1,1,0-13.73A9.71,9.71,0,0,1,538.2,296.84Z"/><rect id="Rectángulo_645" data-name="Rectángulo 645" class="cls-4" x="660.23" y="329.35" width="85.88" height="85.88"/><rect id="Rectángulo_646" data-name="Rectángulo 646" class="cls-5" x="129.91" y="231.91" width="21.93" height="21.93"/><g id="Grupo_1308" data-name="Grupo 1308"><circle id="Elipse_124" data-name="Elipse 124" class="cls-6" cx="517.11" cy="190.32" r="37.64"/><path id="Trazado_3286" data-name="Trazado 3286" class="cls-7" d="M627.41,300.59a156,156,0,1,1,0-220.56A155.95,155.95,0,0,1,627.41,300.59Z"/></g><g id="Grupo_1309" data-name="Grupo 1309"><path id="Trazado_3287" data-name="Trazado 3287" class="cls-8" d="M217,132c18.29,0,18.29,17.55,36.57,17.55S271.86,132,290.15,132s18.28,17.55,36.57,17.55S345,132,363.29,132s18.29,17.55,36.58,17.55S418.16,132,436.45,132,454.74,149.5,473,149.5,491.31,132,509.6,132s18.29,17.55,36.57,17.55S564.47,132,582.77,132s18.29,17.55,36.59,17.55"/></g><g id="Grupo_1311" data-name="Grupo 1311" class="cls-9"><line id="Línea_39" data-name="Línea 39" class="cls-10" x1="307.78" y1="44.21" x2="307.78" y2="64.31"/><line id="Línea_40" data-name="Línea 40" class="cls-10" x1="297.73" y1="54.26" x2="317.82" y2="54.26"/></g><g id="Grupo_1395" data-name="Grupo 1395"><line id="Línea_39-2" data-name="Línea 39-2" class="cls-11" x1="614.95" y1="1.65" x2="604.6" y2="18.88"/><line id="Línea_40-2" data-name="Línea 40-2" class="cls-11" x1="601.16" y1="5.08" x2="618.39" y2="15.43"/></g></g><g id="Grupo_1396" data-name="Grupo 1396" class="cls-1"><rect id="Rectángulo_645-2" data-name="Rectángulo 645-2" class="cls-4" x="429.23" y="159.35" width="39.88" height="39.88"/><path id="Trazado_3285" data-name="Trazado 3285" class="cls-12" d="M144.62,543.8a38.54,38.54,0,1,1,0-54.51h0A38.55,38.55,0,0,1,144.62,543.8Z"/><g id="Grupo_1309-2" data-name="Grupo 1309-2"><path id="Trazado_3287-2" data-name="Trazado 3287-2" class="cls-8" d="M1,342c18.29,0,18.29,17.55,36.57,17.55S55.86,342,74.15,342s18.28,17.55,36.57,17.55S129,342,147.29,342s18.29,17.55,36.58,17.55S202.16,342,220.45,342,238.74,359.5,257,359.5,275.31,342,293.6,342s18.29,17.55,36.57,17.55S348.47,342,366.77,342s18.29,17.55,36.59,17.55"/></g><g id="Grupo_1311-2" data-name="Grupo 1311-2"><line id="Línea_39-3" data-name="Línea 39-3" class="cls-13" x1="48.78" y1="269.21" x2="48.78" y2="289.31"/><line id="Línea_40-3" data-name="Línea 40-3" class="cls-13" x1="38.73" y1="279.26" x2="58.82" y2="279.26"/></g><g id="Grupo_1395-2" data-name="Grupo 1395-2"><line id="Línea_39-4" data-name="Línea 39-4" class="cls-13" x1="206.78" y1="234.21" x2="206.78" y2="254.31"/><line id="Línea_40-4" data-name="Línea 40-4" class="cls-13" x1="196.73" y1="244.26" x2="216.82" y2="244.26"/></g></g></g></g></g></svg>