<svg xmlns="http://www.w3.org/2000/svg" viewBox="0 0 1453.4 290.95"><defs><style>.cls-1{fill:#fff;}</style></defs><title>Recurso 46</title><g id="Capa_2" data-name="Capa 2"><g id="Capa_1-2" data-name="Capa 1"><path class="cls-1" d="M0,0H62.73l79.19,219.33L221.55,0h62.73l-109,286.5H109.44Z"/><path class="cls-1" d="M307,269.6Q286,248.24,286.06,207.76V75.63h60.06V206.42q0,20.93,10,30.7t30.92,9.79a67.22,67.22,0,0,0,28.25-6,78.16,78.16,0,0,0,22.91-15.8V75.63h60.05V286.5h-55.6l-2.23-20Q409.74,290.95,366.14,291,327.88,291,307,269.6Z"/><path class="cls-1" d="M571.89,263.14q-31.36-27.79-31.36-82.52,0-51.6,27.36-80.53t79.85-28.91q48,0,74.52,25.14t26.46,67.4V202H596.14q4.44,24.48,22.46,34.26T671.76,246a197.06,197.06,0,0,0,34.48-3.12,157.86,157.86,0,0,0,30-8V277.6Q706.91,291,659.31,291,603.26,291,571.89,263.14Zm124.34-98.09V153.48q0-39.13-46.71-39.15-29.35,0-41.37,11.79t-12,38.93Z"/><path class="cls-1" d="M820.35,287.83q-21.36-3.1-34.7-8.45V229.56a154.46,154.46,0,0,0,34.26,9.56,219.48,219.48,0,0,0,36.92,3.34q23.11,0,31.81-2.9t8.67-11.78c0-5.35-2.67-9.49-8-12.46s-15.58-6.82-30.7-11.57q-6.68-1.77-16.91-5.34Q810.56,188.18,796.1,174t-14.46-40q0-30.7,22.47-46.72t70.51-16a238.23,238.23,0,0,1,35.82,2.67A176.34,176.34,0,0,1,940.91,81v49.39a122.25,122.25,0,0,0-27.14-8.45,149.76,149.76,0,0,0-29.36-3.12q-21.36,0-31.58,2.89T842.59,133q0,7.56,7.34,11.34t28.25,10l14.68,4.45q25.8,8,39.6,16.68t19.79,20.69q6,12,6,30.7,0,31.59-23.58,47.82T864.83,291A307.39,307.39,0,0,1,820.35,287.83Z"/><path class="cls-1" d="M1012.75,273.82q-21.59-17.13-21.57-48.27,0-31.58,22.46-50.05T1078.37,157h62.29v-5.78q0-13.35-4.67-20.91t-16.46-11.12q-11.8-3.57-33.59-3.56a218.09,218.09,0,0,0-69.4,11.12V84.52a179.38,179.38,0,0,1,36.7-9.78,272.18,272.18,0,0,1,45.15-3.56q99.66,0,99.65,81.41V286.5h-52l-3.11-19.13q-25.8,23.58-76.52,23.58Q1034.32,291,1012.75,273.82Zm104.11-28.92q14.9-6.43,23.8-17.12V194.41h-61q-35.14,0-35.15,28.92,0,28,38.26,28Q1101.95,251.35,1116.86,244.9Z"/><path class="cls-1" d="M1307.48,179.28,1229.63,75.63h64.95L1340,137l45.37-61.39h65l-77.41,103.65L1453.4,286.5H1388L1340,222l-48,64.51h-65.4Z"/></g></g></svg>