<svg xmlns="http://www.w3.org/2000/svg" viewBox="0 0 801.86 578.23"><defs><style>.cls-1{fill:#fff;}</style></defs><title>Recurso 42</title><g id="Capa_2" data-name="Capa 2"><g id="Capa_1-2" data-name="Capa 1"><path class="cls-1" d="M0,417.71H34.61l43.69,121,43.93-121h34.61L96.71,575.78H60.38Z"/><path class="cls-1" d="M169.36,566.45q-11.54-11.78-11.54-34.12V459.44H191V531.6q0,11.53,5.52,16.93t17.06,5.4a37,37,0,0,0,15.58-3.31,43.18,43.18,0,0,0,12.65-8.72V459.44H274.9V575.78H244.22l-1.23-11q-16.94,13.5-41,13.5Q180.9,578.23,169.36,566.45Z"/><path class="cls-1" d="M315.52,562.89q-17.31-15.33-17.3-45.53,0-28.47,15.09-44.43T357.37,457q26.5,0,41.11,13.87T413.08,508v21.11H328.9q2.44,13.5,12.39,18.9t29.33,5.4a108.38,108.38,0,0,0,19-1.72,86.18,86.18,0,0,0,16.57-4.42v23.57q-16.2,7.36-42.46,7.36Q332.82,578.23,315.52,562.89Zm68.6-54.12v-6.38q0-21.6-25.77-21.6-16.2,0-22.83,6.5t-6.62,21.48Z"/><path class="cls-1" d="M452.6,576.51a86,86,0,0,1-19.15-4.66V544.36a85.3,85.3,0,0,0,18.9,5.28,122.27,122.27,0,0,0,20.38,1.84q12.75,0,17.54-1.6a6.32,6.32,0,0,0,4.79-6.5q0-4.43-4.42-6.88t-16.93-6.38q-3.69-1-9.33-2.94-17.19-5.64-25.16-13.5t-8-22.09q0-16.93,12.4-25.77t38.9-8.84a131.6,131.6,0,0,1,19.76,1.47,98,98,0,0,1,16.82,3.93v27.24a67.81,67.81,0,0,0-15-4.66,83.24,83.24,0,0,0-16.2-1.72q-11.78,0-17.42,1.6t-5.65,6.26a6.69,6.69,0,0,0,4.05,6.26q4.05,2.08,15.59,5.52l8.1,2.45q14.22,4.43,21.84,9.21A29,29,0,0,1,525.37,526q3.32,6.63,3.32,16.94,0,17.43-13,26.38t-38.54,9A169.21,169.21,0,0,1,452.6,576.51Z"/><path class="cls-1" d="M558.75,568.78q-11.91-9.45-11.9-26.63,0-17.43,12.39-27.61T595,504.35h34.36v-3.19q0-7.37-2.58-11.54t-9.08-6.13q-6.51-2-18.53-2a120.26,120.26,0,0,0-38.29,6.13V464.34a99,99,0,0,1,20.25-5.4A151,151,0,0,1,606,457q55,0,55,44.92v73.88H632.26l-1.72-10.56q-14.24,13-42.21,13Q570.66,578.23,558.75,568.78Zm57.44-15.95a34.72,34.72,0,0,0,13.13-9.45V525H595.69q-19.4,0-19.39,15.95,0,15.47,21.11,15.47A47,47,0,0,0,616.19,552.83Z"/><path class="cls-1" d="M721.36,516.62l-43-57.18h35.84l25,33.87,25-33.87h35.83l-42.7,57.18,44.42,59.16H765.78l-26.5-35.59-26.51,35.59H676.69Z"/><polygon class="cls-1" points="584.11 31.95 516.61 31.95 401.05 210.91 285.5 31.95 218 31.95 401.05 315.43 584.11 31.95"/><polygon class="cls-1" points="401.05 346.97 246.07 106.96 217.85 106.96 401.05 390.67 584.25 106.96 556.03 106.96 401.05 346.97"/><polygon class="cls-1" points="497.13 5.45 401.05 151.54 304.98 5.45 375.68 23.29 375.68 0 426.43 0 426.43 23.29 497.13 5.45"/></g></g></svg>