<svg xmlns="http://www.w3.org/2000/svg" viewBox="0 0 1453.14 355.98"><defs><style>.cls-1{fill:#fff;}</style></defs><title>Recurso 44</title><g id="Capa_2" data-name="Capa 2"><g id="Capa_1-2" data-name="Capa 1"><path class="cls-1" d="M382.72,98.51h46.2L487.24,260,545.89,98.51h46.2l-80.28,211H463.32Z"/><path class="cls-1" d="M608.8,297.07q-15.4-15.74-15.4-45.55V154.21h44.23v96.33q0,15.41,7.37,22.61t22.78,7.21a49.52,49.52,0,0,0,20.8-4.42,57.32,57.32,0,0,0,16.87-11.64V154.21h44.24V309.52h-41l-1.64-14.75q-22.61,18-54.71,18Q624.2,312.79,608.8,297.07Z"/><path class="cls-1" d="M803.91,292.32q-23.1-20.47-23.1-60.78,0-38,20.15-59.31t58.81-21.29q35.4,0,54.89,18.51t19.49,49.64v28.17H821.77q3.27,18,16.54,25.23t39.16,7.21a145.24,145.24,0,0,0,25.39-2.29,116.37,116.37,0,0,0,22.12-5.9V303q-21.63,9.84-56.69,9.83Q827,312.79,803.91,292.32Zm91.58-72.25v-8.52q0-28.83-34.41-28.83-21.62,0-30.47,8.68t-8.84,28.67Z"/><path class="cls-1" d="M986.9,310.5q-15.72-2.29-25.56-6.22v-36.7a113.58,113.58,0,0,0,25.24,7.05,162.85,162.85,0,0,0,27.19,2.45q17,0,23.43-2.13t6.38-8.68q0-5.89-5.89-9.17t-22.61-8.53c-3.28-.86-7.43-2.18-12.45-3.93q-22.93-7.53-33.58-18T958.4,197.13q0-22.6,16.54-34.4t51.93-11.79a175.5,175.5,0,0,1,26.38,2,127.91,127.91,0,0,1,22.44,5.25v36.36a90,90,0,0,0-20-6.22,110.54,110.54,0,0,0-21.63-2.3q-15.72,0-23.26,2.13c-5,1.43-7.53,4.21-7.53,8.36q0,5.58,5.4,8.35t20.81,7.38l10.81,3.27q19,5.9,29.16,12.29T1084.05,243q4.42,8.84,4.43,22.6,0,23.28-17.37,35.22t-51.44,12A226.9,226.9,0,0,1,986.9,310.5Z"/><path class="cls-1" d="M1128.61,300.18q-15.9-12.62-15.89-35.55,0-23.26,16.54-36.86t47.68-13.6h45.87v-4.26q0-9.82-3.45-15.4t-12.12-8.19q-8.68-2.61-24.74-2.62a160.85,160.85,0,0,0-51.11,8.19V160.77a132.33,132.33,0,0,1,27-7.21,200.08,200.08,0,0,1,33.26-2.62q73.39,0,73.39,60v98.62h-38.33l-2.3-14.09q-19,17.37-56.35,17.36Q1144.49,312.79,1128.61,300.18Zm76.67-21.3a46.29,46.29,0,0,0,17.53-12.61V241.7h-44.89Q1152,241.7,1152,263q0,20.64,28.18,20.64A62.55,62.55,0,0,0,1205.28,278.88Z"/><path class="cls-1" d="M1345.67,230.55l-57.34-76.34h47.84l33.42,45.22L1403,154.21h47.84l-57,76.34,59.3,79H1405L1369.59,262l-35.39,47.51H1286Z"/><polygon class="cls-1" points="333.73 29.11 272.23 29.11 166.93 192.18 61.64 29.11 0.13 29.11 166.93 287.42 333.73 29.11"/><polygon class="cls-1" points="166.93 316.16 25.71 97.46 0 97.46 166.93 355.98 333.87 97.46 308.15 97.46 166.93 316.16"/><polygon class="cls-1" points="254.47 4.97 166.93 138.08 79.39 4.97 143.81 21.23 143.81 0 190.05 0 190.05 21.23 254.47 4.97"/></g></g></svg>