<?xml version="1.0" encoding="utf-8"?>
<!-- Generator: Adobe Illustrator 23.0.0, SVG Export Plug-In . SVG Version: 6.00 Build 0)  -->
<svg version="1.1" id="Layer_1" xmlns="http://www.w3.org/2000/svg" xmlns:xlink="http://www.w3.org/1999/xlink" x="0px" y="0px"
	 viewBox="0 0 2500 2437.5" style="enable-background:new 0 0 2500 2437.5;" xml:space="preserve">
<style type="text/css">
	.st0{fill:#FF26BE;}
	.st1{fill:#2E001F;}
	.st2{fill:#FFD9F2;}
</style>
<path class="st0" d="M2057.3,2437.5H442.7C197.9,2437.5,0,2239.6,0,1994.8V442.7C0,197.9,197.9,0,442.7,0h1614.6
	C2302.1,0,2500,197.9,2500,442.7v1552.1C2500,2239.6,2302.1,2437.5,2057.3,2437.5z"/>
<path class="st1" d="M2017.7,2333.3H482.3c-208.3,0-378.1-169.8-378.1-378.1V482.3c0-208.3,169.8-378.1,378.1-378.1h1534.4
	c209.4,0,378.1,169.8,378.1,378.1v1471.9C2395.8,2163.5,2226,2333.3,2017.7,2333.3L2017.7,2333.3z"/>
<path class="st2" d="M988.5,1140.6l291.7,560.4c5.2,8.3,2.1,16.7-6.3,16.7h-181.3c-11.5,0-16.7-3.1-21.9-13.5
	c-66.7-137.5-134.4-275-204.2-422.9h-2.1c-62.5,139.6-131.3,286.5-197.9,424c-5.2,8.3-10.4,11.5-18.8,11.5H476
	c-10.4,0-11.5-8.3-6.2-14.6l285.4-543.8l-276-550c-6.3-8.3,0-14.6,6.2-14.6h179.2c10.4,0,14.6,2.1,18.7,11.5
	c65.6,137.5,132.3,279.2,194.8,417.7h2.1c60.4-137.5,127.1-280.2,191.7-416.7c5.2-8.3,8.3-13.5,18.8-13.5h167.7
	c8.3,0,11.5,6.3,6.3,14.6L988.5,1140.6z M1331.3,1310.4c0-242.7,161.5-432.3,417.7-432.3c21.9,0,33.3,0,54.2,2.1v-276
	c0-6.3,5.2-10.4,10.4-10.4h164.6c8.3,0,10.4,3.1,10.4,8.3v956.3c0,28.1,0,63.5,5.2,102.1c0,6.3-2.1,8.3-8.3,11.5
	c-87.5,41.7-179.2,60.4-266.7,60.4C1492.7,1733.3,1331.2,1593.8,1331.3,1310.4L1331.3,1310.4z M1803.1,1043.8
	c-14.6-6.3-35.4-10.4-60.4-10.4c-131.3,0-222.9,101-222.9,268.8c0,191.7,93.8,268.8,211.5,268.8c25,0,52.1-3.1,71.9-11.5V1043.8z"/>
</svg>
